<svg width="32" height="63" viewBox="0 0 32 63" fill="none" xmlns="http://www.w3.org/2000/svg">
<path d="M-3.17896 61.7917C1.85324 62.7529 7.01922 62.3454 11.817 60.6087C16.6148 58.8721 20.8813 55.8653 24.2019 51.8806C27.5225 47.8959 29.7843 43.0688 30.7675 37.8683C31.7507 32.6678 31.4219 27.2708 29.8131 22.2016C28.2042 17.1324 25.37 12.5634 21.5858 8.93871C17.8017 5.31398 13.1962 2.75669 8.217 1.51535C3.23777 0.274014 -1.94592 0.390829 -6.83039 1.85444C-11.7149 3.31806 -16.134 6.07871 -19.6585 9.86815L-3.63104 26.0587C-2.74676 25.1079 -1.63798 24.4153 -0.412463 24.0481C0.813057 23.6808 2.11365 23.6515 3.36295 23.963C4.61224 24.2744 5.76776 24.9161 6.71721 25.8255C7.66667 26.735 8.37777 27.8813 8.78144 29.1532C9.1851 30.425 9.2676 31.7792 9.0209 33.084C8.77421 34.3888 8.20673 35.5999 7.37359 36.5997C6.54044 37.5995 5.46998 38.3539 4.2662 38.7896C3.06243 39.2253 1.76627 39.3276 0.503688 39.0864L-3.17896 61.7917Z" fill="#1F346C"/>
</svg>
