<svg width="58" height="99" viewBox="0 0 58 99" fill="none" xmlns="http://www.w3.org/2000/svg">
<path d="M-5.54377 98.1623C3.45382 99.5682 12.7285 98.7789 21.3791 95.8711C30.0298 92.9634 37.7621 88.036 43.8249 81.5679C49.8877 75.0998 54.0747 67.3108 55.9792 58.9578C57.8837 50.6048 57.4408 41.9719 54.6935 33.8978C51.9463 25.8237 46.9882 18.583 40.301 12.8793C33.6137 7.17561 25.4248 3.20287 16.5297 1.34708C7.63474 -0.508708 -1.66381 -0.184435 -10.4624 2.2884C-19.261 4.76123 -27.2605 9.29854 -33.6835 15.4594L-5.38322 40.9592C-3.77168 39.4134 -1.7646 38.275 0.442977 37.6545C2.65056 37.0341 4.98358 36.9527 7.21535 37.4183C9.44712 37.884 11.5017 38.8807 13.1796 40.3118C14.8574 41.7429 16.1014 43.5596 16.7907 45.5854C17.48 47.6112 17.5911 49.7772 17.1133 51.873C16.6354 53.9687 15.5849 55.923 14.0637 57.5459C12.5426 59.1687 10.6025 60.405 8.43207 61.1346C6.26161 61.8641 3.93458 62.0622 1.67707 61.7094L-5.54377 98.1623Z" fill="white"/>
<path d="M-5.54377 98.1623C3.45382 99.5682 12.7285 98.7789 21.3791 95.8711C30.0298 92.9634 37.7621 88.036 43.8249 81.5679C49.8877 75.0998 54.0747 67.3108 55.9792 58.9578C57.8837 50.6048 57.4408 41.9719 54.6935 33.8978C51.9463 25.8237 46.9882 18.583 40.301 12.8793C33.6137 7.17561 25.4248 3.20287 16.5297 1.34708C7.63474 -0.508708 -1.66381 -0.184435 -10.4624 2.2884C-19.261 4.76123 -27.2605 9.29854 -33.6835 15.4594L-5.38322 40.9592C-3.77168 39.4134 -1.7646 38.275 0.442977 37.6545C2.65056 37.0341 4.98358 36.9527 7.21535 37.4183C9.44712 37.884 11.5017 38.8807 13.1796 40.3118C14.8574 41.7429 16.1014 43.5596 16.7907 45.5854C17.48 47.6112 17.5911 49.7772 17.1133 51.873C16.6354 53.9687 15.5849 55.923 14.0637 57.5459C12.5426 59.1687 10.6025 60.405 8.43207 61.1346C6.26161 61.8641 3.93458 62.0622 1.67707 61.7094L-5.54377 98.1623Z" fill="white"/>
<path d="M-5.54377 98.1623C3.45382 99.5682 12.7285 98.7789 21.3791 95.8711C30.0298 92.9634 37.7621 88.036 43.8249 81.5679C49.8877 75.0998 54.0747 67.3108 55.9792 58.9578C57.8837 50.6048 57.4408 41.9719 54.6935 33.8978C51.9463 25.8237 46.9882 18.583 40.301 12.8793C33.6137 7.17561 25.4248 3.20287 16.5297 1.34708C7.63474 -0.508708 -1.66381 -0.184435 -10.4624 2.2884C-19.261 4.76123 -27.2605 9.29854 -33.6835 15.4594L-5.38322 40.9592C-3.77168 39.4134 -1.7646 38.275 0.442977 37.6545C2.65056 37.0341 4.98358 36.9527 7.21535 37.4183C9.44712 37.884 11.5017 38.8807 13.1796 40.3118C14.8574 41.7429 16.1014 43.5596 16.7907 45.5854C17.48 47.6112 17.5911 49.7772 17.1133 51.873C16.6354 53.9687 15.5849 55.923 14.0637 57.5459C12.5426 59.1687 10.6025 60.405 8.43207 61.1346C6.26161 61.8641 3.93458 62.0622 1.67707 61.7094L-5.54377 98.1623Z" fill="white"/>
<path d="M-5.54377 98.1623C3.45382 99.5682 12.7285 98.7789 21.3791 95.8711C30.0298 92.9634 37.7621 88.036 43.8249 81.5679C49.8877 75.0998 54.0747 67.3108 55.9792 58.9578C57.8837 50.6048 57.4408 41.9719 54.6935 33.8978C51.9463 25.8237 46.9882 18.583 40.301 12.8793C33.6137 7.17561 25.4248 3.20287 16.5297 1.34708C7.63474 -0.508708 -1.66381 -0.184435 -10.4624 2.2884C-19.261 4.76123 -27.2605 9.29854 -33.6835 15.4594L-5.38322 40.9592C-3.77168 39.4134 -1.7646 38.275 0.442977 37.6545C2.65056 37.0341 4.98358 36.9527 7.21535 37.4183C9.44712 37.884 11.5017 38.8807 13.1796 40.3118C14.8574 41.7429 16.1014 43.5596 16.7907 45.5854C17.48 47.6112 17.5911 49.7772 17.1133 51.873C16.6354 53.9687 15.5849 55.923 14.0637 57.5459C12.5426 59.1687 10.6025 60.405 8.43207 61.1346C6.26161 61.8641 3.93458 62.0622 1.67707 61.7094L-5.54377 98.1623Z" fill="white"/>
<path d="M-5.54377 98.1623C3.45382 99.5682 12.7285 98.7789 21.3791 95.8711C30.0298 92.9634 37.7621 88.036 43.8249 81.5679C49.8877 75.0998 54.0747 67.3108 55.9792 58.9578C57.8837 50.6048 57.4408 41.9719 54.6935 33.8978C51.9463 25.8237 46.9882 18.583 40.301 12.8793C33.6137 7.17561 25.4248 3.20287 16.5297 1.34708C7.63474 -0.508708 -1.66381 -0.184435 -10.4624 2.2884C-19.261 4.76123 -27.2605 9.29854 -33.6835 15.4594L-5.38322 40.9592C-3.77168 39.4134 -1.7646 38.275 0.442977 37.6545C2.65056 37.0341 4.98358 36.9527 7.21535 37.4183C9.44712 37.884 11.5017 38.8807 13.1796 40.3118C14.8574 41.7429 16.1014 43.5596 16.7907 45.5854C17.48 47.6112 17.5911 49.7772 17.1133 51.873C16.6354 53.9687 15.5849 55.923 14.0637 57.5459C12.5426 59.1687 10.6025 60.405 8.43207 61.1346C6.26161 61.8641 3.93458 62.0622 1.67707 61.7094L-5.54377 98.1623Z" fill="white"/>
</svg>
