<svg width="34" height="93" viewBox="0 0 34 93" fill="none" xmlns="http://www.w3.org/2000/svg">
<path d="M34.3765 92.932C29.3332 91.6522 24.4699 89.2013 20.0643 85.7191C15.6587 82.2369 11.7972 77.7916 8.70008 72.637C5.60298 67.4825 3.33101 61.7197 2.01388 55.6775C0.696758 49.6354 0.36027 43.4323 1.02363 37.4224C1.687 31.4126 3.33722 25.7136 5.88008 20.651C8.42295 15.5883 11.8087 11.2611 15.8439 7.9164C19.8791 4.57169 24.4849 2.27501 29.3981 1.15747C34.3114 0.0399277 39.436 0.123417 44.4793 1.40316L40.6953 35.6852C39.4299 35.3641 38.1442 35.3432 36.9114 35.6236C35.6787 35.904 34.5231 36.4802 33.5106 37.3194C32.4982 38.1586 31.6487 39.2443 31.0107 40.5145C30.3727 41.7847 29.9587 43.2146 29.7922 44.7225C29.6258 46.2304 29.7102 47.7868 30.0407 49.3027C30.3711 50.8187 30.9412 52.2646 31.7182 53.5579C32.4953 54.8512 33.4642 55.9665 34.5695 56.8402C35.6749 57.7139 36.8951 58.3288 38.1605 58.6499L34.3765 92.932Z" fill="white"/>
<path d="M34.3765 92.932C29.3332 91.6522 24.4699 89.2013 20.0643 85.7191C15.6587 82.2369 11.7972 77.7916 8.70008 72.637C5.60298 67.4825 3.33101 61.7197 2.01388 55.6775C0.696758 49.6354 0.36027 43.4323 1.02363 37.4224C1.687 31.4126 3.33722 25.7136 5.88008 20.651C8.42295 15.5883 11.8087 11.2611 15.8439 7.9164C19.8791 4.57169 24.4849 2.27501 29.3981 1.15747C34.3114 0.0399277 39.436 0.123417 44.4793 1.40316L40.6953 35.6852C39.4299 35.3641 38.1442 35.3432 36.9114 35.6236C35.6787 35.904 34.5231 36.4802 33.5106 37.3194C32.4982 38.1586 31.6487 39.2443 31.0107 40.5145C30.3727 41.7847 29.9587 43.2146 29.7922 44.7225C29.6258 46.2304 29.7102 47.7868 30.0407 49.3027C30.3711 50.8187 30.9412 52.2646 31.7182 53.5579C32.4953 54.8512 33.4642 55.9665 34.5695 56.8402C35.6749 57.7139 36.8951 58.3288 38.1605 58.6499L34.3765 92.932Z" fill="white"/>
<path d="M34.3765 92.932C29.3332 91.6522 24.4699 89.2013 20.0643 85.7191C15.6587 82.2369 11.7972 77.7916 8.70008 72.637C5.60298 67.4825 3.33101 61.7197 2.01388 55.6775C0.696758 49.6354 0.36027 43.4323 1.02363 37.4224C1.687 31.4126 3.33722 25.7136 5.88008 20.651C8.42295 15.5883 11.8087 11.2611 15.8439 7.9164C19.8791 4.57169 24.4849 2.27501 29.3981 1.15747C34.3114 0.0399277 39.436 0.123417 44.4793 1.40316L40.6953 35.6852C39.4299 35.3641 38.1442 35.3432 36.9114 35.6236C35.6787 35.904 34.5231 36.4802 33.5106 37.3194C32.4982 38.1586 31.6487 39.2443 31.0107 40.5145C30.3727 41.7847 29.9587 43.2146 29.7922 44.7225C29.6258 46.2304 29.7102 47.7868 30.0407 49.3027C30.3711 50.8187 30.9412 52.2646 31.7182 53.5579C32.4953 54.8512 33.4642 55.9665 34.5695 56.8402C35.6749 57.7139 36.8951 58.3288 38.1605 58.6499L34.3765 92.932Z" fill="white"/>
<path d="M34.3765 92.932C29.3332 91.6522 24.4699 89.2013 20.0643 85.7191C15.6587 82.2369 11.7972 77.7916 8.70008 72.637C5.60298 67.4825 3.33101 61.7197 2.01388 55.6775C0.696758 49.6354 0.36027 43.4323 1.02363 37.4224C1.687 31.4126 3.33722 25.7136 5.88008 20.651C8.42295 15.5883 11.8087 11.2611 15.8439 7.9164C19.8791 4.57169 24.4849 2.27501 29.3981 1.15747C34.3114 0.0399277 39.436 0.123417 44.4793 1.40316L40.6953 35.6852C39.4299 35.3641 38.1442 35.3432 36.9114 35.6236C35.6787 35.904 34.5231 36.4802 33.5106 37.3194C32.4982 38.1586 31.6487 39.2443 31.0107 40.5145C30.3727 41.7847 29.9587 43.2146 29.7922 44.7225C29.6258 46.2304 29.7102 47.7868 30.0407 49.3027C30.3711 50.8187 30.9412 52.2646 31.7182 53.5579C32.4953 54.8512 33.4642 55.9665 34.5695 56.8402C35.6749 57.7139 36.8951 58.3288 38.1605 58.6499L34.3765 92.932Z" fill="white"/>
<path d="M34.3765 92.932C29.3332 91.6522 24.4699 89.2013 20.0643 85.7191C15.6587 82.2369 11.7972 77.7916 8.70008 72.637C5.60298 67.4825 3.33101 61.7197 2.01388 55.6775C0.696758 49.6354 0.36027 43.4323 1.02363 37.4224C1.687 31.4126 3.33722 25.7136 5.88008 20.651C8.42295 15.5883 11.8087 11.2611 15.8439 7.9164C19.8791 4.57169 24.4849 2.27501 29.3981 1.15747C34.3114 0.0399277 39.436 0.123417 44.4793 1.40316L40.6953 35.6852C39.4299 35.3641 38.1442 35.3432 36.9114 35.6236C35.6787 35.904 34.5231 36.4802 33.5106 37.3194C32.4982 38.1586 31.6487 39.2443 31.0107 40.5145C30.3727 41.7847 29.9587 43.2146 29.7922 44.7225C29.6258 46.2304 29.7102 47.7868 30.0407 49.3027C30.3711 50.8187 30.9412 52.2646 31.7182 53.5579C32.4953 54.8512 33.4642 55.9665 34.5695 56.8402C35.6749 57.7139 36.8951 58.3288 38.1605 58.6499L34.3765 92.932Z" fill="white"/>
</svg>
