<svg width="43" height="107" viewBox="0 0 43 107" fill="none" xmlns="http://www.w3.org/2000/svg">
<path d="M52.5763 0.713736C43.579 0.668473 34.7463 2.97923 26.9365 7.42147C19.1268 11.8637 12.6055 18.2864 8.00644 26.0654C3.40736 33.8444 0.886812 42.7153 0.689736 51.816C0.492654 60.9167 2.62573 69.9379 6.88171 78.0028C11.1377 86.0678 17.3718 92.9024 24.9784 97.8424C32.585 102.782 41.3053 105.66 50.292 106.196C59.2788 106.731 68.2264 104.906 76.2654 100.898C84.3044 96.8906 91.1614 90.8361 96.1703 83.3232L63.7107 60.9827C62.4539 62.8677 60.7335 64.3868 58.7165 65.3923C56.6995 66.3979 54.4545 66.8557 52.1997 66.7214C49.945 66.587 47.757 65.865 45.8485 64.6256C43.94 63.3861 42.3759 61.6713 41.308 59.6478C40.2402 57.6243 39.705 55.3609 39.7545 53.0775C39.8039 50.7941 40.4363 48.5684 41.5902 46.6166C42.7442 44.6649 44.3803 43.0534 46.3398 41.9388C48.2993 40.8243 50.5154 40.2445 52.7729 40.2559L52.5763 0.713736Z" fill="#1F346C"/>
</svg>
