<svg width="42" height="106" viewBox="0 0 42 106" fill="none" xmlns="http://www.w3.org/2000/svg">
<path d="M41.641 105.173C35.3511 103.837 29.3137 101.173 23.8736 97.3336C18.4334 93.4944 13.6969 88.5551 9.93464 82.7976C6.17236 77.0401 3.45793 70.5771 1.94634 63.7778C0.434747 56.9784 0.155593 49.9758 1.12481 43.1698C2.09403 36.3637 4.29265 29.8875 7.59513 24.1109C10.8976 18.3343 15.2393 13.3705 20.3722 9.50281C25.5052 5.63514 31.3289 2.93935 37.5109 1.56939C43.6929 0.199414 50.1121 0.1821 56.402 1.51842L50.8733 40.3421C49.2952 40.0068 47.6846 40.0112 46.1335 40.3549C44.5824 40.6986 43.1212 41.375 41.8334 42.3454C40.5455 43.3158 39.4562 44.5613 38.6276 46.0106C37.799 47.46 37.2474 49.0848 37.0042 50.7925C36.761 52.5001 36.831 54.2571 37.2103 55.9631C37.5896 57.669 38.2706 59.2906 39.2146 60.7352C40.1585 62.1797 41.3469 63.419 42.7119 64.3823C44.0768 65.3455 45.5916 66.0139 47.1697 66.3492L41.641 105.173Z" fill="white"/>
<path d="M41.641 105.173C35.3511 103.837 29.3137 101.173 23.8736 97.3336C18.4334 93.4944 13.6969 88.5551 9.93464 82.7976C6.17236 77.0401 3.45793 70.5771 1.94634 63.7778C0.434747 56.9784 0.155593 49.9758 1.12481 43.1698C2.09403 36.3637 4.29265 29.8875 7.59513 24.1109C10.8976 18.3343 15.2393 13.3705 20.3722 9.50281C25.5052 5.63514 31.3289 2.93935 37.5109 1.56939C43.6929 0.199414 50.1121 0.1821 56.402 1.51842L50.8733 40.3421C49.2952 40.0068 47.6846 40.0112 46.1335 40.3549C44.5824 40.6986 43.1212 41.375 41.8334 42.3454C40.5455 43.3158 39.4562 44.5613 38.6276 46.0106C37.799 47.46 37.2474 49.0848 37.0042 50.7925C36.761 52.5001 36.831 54.2571 37.2103 55.9631C37.5896 57.669 38.2706 59.2906 39.2146 60.7352C40.1585 62.1797 41.3469 63.419 42.7119 64.3823C44.0768 65.3455 45.5916 66.0139 47.1697 66.3492L41.641 105.173Z" fill="white"/>
<path d="M41.641 105.173C35.3511 103.837 29.3137 101.173 23.8736 97.3336C18.4334 93.4944 13.6969 88.5551 9.93464 82.7976C6.17236 77.0401 3.45793 70.5771 1.94634 63.7778C0.434747 56.9784 0.155593 49.9758 1.12481 43.1698C2.09403 36.3637 4.29265 29.8875 7.59513 24.1109C10.8976 18.3343 15.2393 13.3705 20.3722 9.50281C25.5052 5.63514 31.3289 2.93935 37.5109 1.56939C43.6929 0.199414 50.1121 0.1821 56.402 1.51842L50.8733 40.3421C49.2952 40.0068 47.6846 40.0112 46.1335 40.3549C44.5824 40.6986 43.1212 41.375 41.8334 42.3454C40.5455 43.3158 39.4562 44.5613 38.6276 46.0106C37.799 47.46 37.2474 49.0848 37.0042 50.7925C36.761 52.5001 36.831 54.2571 37.2103 55.9631C37.5896 57.669 38.2706 59.2906 39.2146 60.7352C40.1585 62.1797 41.3469 63.419 42.7119 64.3823C44.0768 65.3455 45.5916 66.0139 47.1697 66.3492L41.641 105.173Z" fill="white"/>
<path d="M41.641 105.173C35.3511 103.837 29.3137 101.173 23.8736 97.3336C18.4334 93.4944 13.6969 88.5551 9.93464 82.7976C6.17236 77.0401 3.45793 70.5771 1.94634 63.7778C0.434747 56.9784 0.155593 49.9758 1.12481 43.1698C2.09403 36.3637 4.29265 29.8875 7.59513 24.1109C10.8976 18.3343 15.2393 13.3705 20.3722 9.50281C25.5052 5.63514 31.3289 2.93935 37.5109 1.56939C43.6929 0.199414 50.1121 0.1821 56.402 1.51842L50.8733 40.3421C49.2952 40.0068 47.6846 40.0112 46.1335 40.3549C44.5824 40.6986 43.1212 41.375 41.8334 42.3454C40.5455 43.3158 39.4562 44.5613 38.6276 46.0106C37.799 47.46 37.2474 49.0848 37.0042 50.7925C36.761 52.5001 36.831 54.2571 37.2103 55.9631C37.5896 57.669 38.2706 59.2906 39.2146 60.7352C40.1585 62.1797 41.3469 63.419 42.7119 64.3823C44.0768 65.3455 45.5916 66.0139 47.1697 66.3492L41.641 105.173Z" fill="white"/>
<path d="M41.641 105.173C35.3511 103.837 29.3137 101.173 23.8736 97.3336C18.4334 93.4944 13.6969 88.5551 9.93464 82.7976C6.17236 77.0401 3.45793 70.5771 1.94634 63.7778C0.434747 56.9784 0.155593 49.9758 1.12481 43.1698C2.09403 36.3637 4.29265 29.8875 7.59513 24.1109C10.8976 18.3343 15.2393 13.3705 20.3722 9.50281C25.5052 5.63514 31.3289 2.93935 37.5109 1.56939C43.6929 0.199414 50.1121 0.1821 56.402 1.51842L50.8733 40.3421C49.2952 40.0068 47.6846 40.0112 46.1335 40.3549C44.5824 40.6986 43.1212 41.375 41.8334 42.3454C40.5455 43.3158 39.4562 44.5613 38.6276 46.0106C37.799 47.46 37.2474 49.0848 37.0042 50.7925C36.761 52.5001 36.831 54.2571 37.2103 55.9631C37.5896 57.669 38.2706 59.2906 39.2146 60.7352C40.1585 62.1797 41.3469 63.419 42.7119 64.3823C44.0768 65.3455 45.5916 66.0139 47.1697 66.3492L41.641 105.173Z" fill="white"/>
</svg>
