<svg width="249" height="49" viewBox="0 0 249 49" fill="none" xmlns="http://www.w3.org/2000/svg">
<rect width="116" height="48.7869" fill="white"/>
<path d="M16.152 13.9687H20.9886L27.4659 29.7783H27.7216L34.1989 13.9687H39.0355V35.7869H35.2429V20.7975H35.0405L29.0107 35.7229H26.1768L20.147 20.7656H19.9446V35.7869H16.152V13.9687ZM46.1413 35.7869H41.9226L49.6037 13.9687H54.483L62.1747 35.7869H57.956L52.1286 18.4431H51.9581L46.1413 35.7869ZM46.2798 27.2322H57.7855V30.4069H46.2798V27.2322ZM65.0485 35.7869V13.9687H73.2303C74.9064 13.9687 76.3127 14.2812 77.449 14.9062C78.5925 15.5312 79.4554 16.3906 80.0378 17.4843C80.6273 18.571 80.9221 19.8068 80.9221 21.1917C80.9221 22.5908 80.6273 23.8337 80.0378 24.9204C79.4483 26.007 78.5783 26.8629 77.4277 27.4879C76.2772 28.1058 74.8603 28.4147 73.177 28.4147H67.7544V25.1654H72.6444C73.6245 25.1654 74.427 24.995 75.052 24.6541C75.677 24.3131 76.1387 23.8444 76.437 23.2478C76.7424 22.6512 76.8951 21.9658 76.8951 21.1917C76.8951 20.4175 76.7424 19.7357 76.437 19.1462C76.1387 18.5568 75.6735 18.0987 75.0414 17.7719C74.4164 17.4381 73.6103 17.2712 72.623 17.2712H69.0009V35.7869H65.0485ZM84.7253 35.7869H80.5066L88.1877 13.9687H93.0669L100.759 35.7869H96.54L90.7125 18.4431H90.5421L84.7253 35.7869ZM84.8638 27.2322H96.3695V30.4069H84.8638V27.2322Z" fill="#1F346C"/>
<path d="M134.168 20.7869C134.111 20.0766 133.844 19.5227 133.369 19.1249C132.9 18.7272 132.186 18.5283 131.227 18.5283C130.616 18.5283 130.116 18.6029 129.725 18.7521C129.342 18.8941 129.058 19.0894 128.873 19.338C128.688 19.5866 128.592 19.8707 128.585 20.1903C128.571 20.4531 128.617 20.691 128.724 20.9041C128.837 21.11 129.015 21.2982 129.256 21.4687C129.498 21.632 129.807 21.7812 130.183 21.9161C130.56 22.0511 131.007 22.1718 131.526 22.2783L133.315 22.6619C134.523 22.9175 135.556 23.2549 136.415 23.6739C137.275 24.093 137.978 24.5866 138.525 25.1548C139.072 25.7158 139.473 26.3479 139.729 27.0511C139.991 27.7542 140.126 28.5212 140.134 29.3522C140.126 30.7869 139.768 32.0014 139.058 32.9957C138.347 33.99 137.332 34.7464 136.011 35.2648C134.697 35.7833 133.116 36.0425 131.27 36.0425C129.374 36.0425 127.719 35.762 126.305 35.2009C124.899 34.6398 123.805 33.7769 123.024 32.6121C122.25 31.4403 121.859 29.9417 121.852 28.1164H127.477C127.513 28.784 127.68 29.3451 127.978 29.7996C128.276 30.2542 128.695 30.5987 129.235 30.833C129.782 31.0674 130.432 31.1846 131.185 31.1846C131.817 31.1846 132.346 31.1065 132.772 30.9502C133.198 30.794 133.521 30.5773 133.741 30.3004C133.962 30.0234 134.075 29.7073 134.082 29.3522C134.075 29.0184 133.965 28.7272 133.752 28.4786C133.546 28.2229 133.205 27.9957 132.729 27.7968C132.254 27.5908 131.611 27.3991 130.801 27.2215L128.628 26.7528C126.696 26.3337 125.173 25.6342 124.058 24.6541C122.95 23.6668 122.399 22.321 122.406 20.6164C122.399 19.2315 122.768 18.0205 123.514 16.9836C124.267 15.9396 125.308 15.1264 126.636 14.544C127.971 13.9616 129.501 13.6704 131.227 13.6704C132.989 13.6704 134.512 13.9651 135.798 14.5546C137.083 15.1441 138.074 15.9751 138.77 17.0475C139.473 18.1129 139.828 19.3593 139.835 20.7869H134.168ZM142.387 35.7869V13.9687H158.111V18.7414H148.31V22.4914H157.301V27.2641H148.31V31.0141H158.069V35.7869H142.387ZM175.218 21.1704C175.126 20.794 174.98 20.4637 174.781 20.1796C174.582 19.8884 174.334 19.6434 174.035 19.4445C173.744 19.2386 173.403 19.0859 173.013 18.9864C172.629 18.8799 172.206 18.8266 171.745 18.8266C170.751 18.8266 169.902 19.0646 169.199 19.5404C168.503 20.0163 167.97 20.7016 167.601 21.5965C167.238 22.4914 167.057 23.571 167.057 24.8352C167.057 26.1136 167.231 27.2073 167.579 28.1164C167.927 29.0255 168.446 29.7215 169.135 30.2045C169.824 30.6874 170.68 30.9289 171.702 30.9289C172.604 30.9289 173.354 30.7975 173.95 30.5347C174.554 30.272 175.005 29.8991 175.303 29.4161C175.601 28.9332 175.751 28.365 175.751 27.7116L176.773 27.8181H171.787V23.5994H181.461V26.6249C181.461 28.6136 181.038 30.3146 180.193 31.7279C179.355 33.1342 178.197 34.2137 176.72 34.9666C175.25 35.7123 173.563 36.0852 171.66 36.0852C169.536 36.0852 167.672 35.6342 166.067 34.7322C164.461 33.8302 163.208 32.5447 162.306 30.8756C161.411 29.2066 160.964 27.2215 160.964 24.9204C160.964 23.1164 161.237 21.5184 161.784 20.1264C162.338 18.7343 163.105 17.5589 164.085 16.6001C165.065 15.6342 166.198 14.9062 167.483 14.4161C168.769 13.919 170.147 13.6704 171.617 13.6704C172.91 13.6704 174.11 13.855 175.218 14.2244C176.333 14.5866 177.317 15.105 178.169 15.7798C179.028 16.4474 179.721 17.2393 180.246 18.1555C180.772 19.0717 181.091 20.0766 181.205 21.1704H175.218ZM197.135 13.9687H203.058V27.946C203.058 29.6079 202.66 31.0461 201.865 32.2606C201.076 33.468 199.975 34.4019 198.562 35.0624C197.149 35.7158 195.508 36.0425 193.64 36.0425C191.758 36.0425 190.11 35.7158 188.697 35.0624C187.284 34.4019 186.183 33.468 185.395 32.2606C184.613 31.0461 184.223 29.6079 184.223 27.946V13.9687H190.146V27.4346C190.146 28.1093 190.295 28.713 190.593 29.2457C190.892 29.7712 191.304 30.1832 191.829 30.4815C192.362 30.7798 192.966 30.9289 193.64 30.9289C194.322 30.9289 194.926 30.7798 195.451 30.4815C195.977 30.1832 196.389 29.7712 196.687 29.2457C196.985 28.713 197.135 28.1093 197.135 27.4346V13.9687ZM205.873 35.7869V13.9687H215.291C216.91 13.9687 218.327 14.2634 219.541 14.8529C220.756 15.4424 221.7 16.2911 222.375 17.3991C223.05 18.507 223.387 19.8352 223.387 21.3835C223.387 22.946 223.039 24.2634 222.343 25.3359C221.654 26.4083 220.685 27.218 219.435 27.7648C218.192 28.3117 216.74 28.5852 215.078 28.5852H209.453V23.9829H213.884C214.58 23.9829 215.173 23.8977 215.664 23.7272C216.161 23.5496 216.541 23.2691 216.803 22.8856C217.073 22.5021 217.208 22.0014 217.208 21.3835C217.208 20.7585 217.073 20.2506 216.803 19.86C216.541 19.4623 216.161 19.1711 215.664 18.9864C215.173 18.7947 214.58 18.6988 213.884 18.6988H211.796V35.7869H205.873ZM218.657 25.7727L224.112 35.7869H217.677L212.35 25.7727H218.657ZM247.048 24.8778C247.048 27.3068 246.576 29.3558 245.632 31.0248C244.687 32.6867 243.412 33.9474 241.807 34.8068C240.202 35.659 238.412 36.0852 236.438 36.0852C234.449 36.0852 232.652 35.6555 231.047 34.7961C229.449 33.9296 228.178 32.6654 227.233 31.0035C226.296 29.3345 225.827 27.2925 225.827 24.8778C225.827 22.4488 226.296 20.4033 227.233 18.7414C228.178 17.0724 229.449 15.8117 231.047 14.9594C232.652 14.1001 234.449 13.6704 236.438 13.6704C238.412 13.6704 240.202 14.1001 241.807 14.9594C243.412 15.8117 244.687 17.0724 245.632 18.7414C246.576 20.4033 247.048 22.4488 247.048 24.8778ZM240.955 24.8778C240.955 23.571 240.781 22.4701 240.433 21.5752C240.092 20.6732 239.584 19.9914 238.909 19.5298C238.242 19.061 237.418 18.8266 236.438 18.8266C235.458 18.8266 234.63 19.061 233.955 19.5298C233.288 19.9914 232.78 20.6732 232.432 21.5752C232.091 22.4701 231.921 23.571 231.921 24.8778C231.921 26.1846 232.091 27.289 232.432 28.191C232.78 29.0859 233.288 29.7677 233.955 30.2364C234.63 30.6981 235.458 30.9289 236.438 30.9289C237.418 30.9289 238.242 30.6981 238.909 30.2364C239.584 29.7677 240.092 29.0859 240.433 28.191C240.781 27.289 240.955 26.1846 240.955 24.8778Z" fill="white"/>
</svg>
