<svg width="249" height="49" viewBox="0 0 249 49" fill="none" xmlns="http://www.w3.org/2000/svg">
<rect y="0.212891" width="116" height="48.7869" fill="#1F346C"/>
<path d="M16.152 14.1818H20.9886L27.4659 29.9915H27.7216L34.1989 14.1818H39.0355V36H35.2429V21.0107H35.0405L29.0107 35.9361H26.1768L20.147 20.9787H19.9446V36H16.152V14.1818ZM46.1413 36H41.9226L49.6037 14.1818H54.483L62.1747 36H57.956L52.1286 18.6562H51.9581L46.1413 36ZM46.2798 27.4453H57.7855V30.62H46.2798V27.4453ZM65.0485 36V14.1818H73.2303C74.9064 14.1818 76.3127 14.4943 77.449 15.1193C78.5925 15.7443 79.4554 16.6037 80.0378 17.6974C80.6273 18.7841 80.9221 20.0199 80.9221 21.4048C80.9221 22.804 80.6273 24.0469 80.0378 25.1335C79.4483 26.2202 78.5783 27.076 77.4277 27.701C76.2772 28.3189 74.8603 28.6278 73.177 28.6278H67.7544V25.3786H72.6444C73.6245 25.3786 74.427 25.2081 75.052 24.8672C75.677 24.5263 76.1387 24.0575 76.437 23.4609C76.7424 22.8643 76.8951 22.179 76.8951 21.4048C76.8951 20.6307 76.7424 19.9489 76.437 19.3594C76.1387 18.7699 75.6735 18.3118 75.0414 17.9851C74.4164 17.6513 73.6103 17.4844 72.623 17.4844H69.0009V36H65.0485ZM84.7253 36H80.5066L88.1877 14.1818H93.0669L100.759 36H96.54L90.7125 18.6562H90.5421L84.7253 36ZM84.8638 27.4453H96.3695V30.62H84.8638V27.4453Z" fill="white"/>
<path d="M134.168 21C134.111 20.2898 133.844 19.7358 133.369 19.3381C132.9 18.9403 132.186 18.7415 131.227 18.7415C130.616 18.7415 130.116 18.8161 129.725 18.9652C129.342 19.1072 129.058 19.3026 128.873 19.5511C128.688 19.7997 128.592 20.0838 128.585 20.4034C128.571 20.6662 128.617 20.9041 128.724 21.1172C128.837 21.3232 129.015 21.5114 129.256 21.6818C129.498 21.8452 129.807 21.9943 130.183 22.1293C130.56 22.2642 131.007 22.3849 131.526 22.4915L133.315 22.875C134.523 23.1307 135.556 23.468 136.415 23.8871C137.275 24.3061 137.978 24.7997 138.525 25.3679C139.072 25.929 139.473 26.5611 139.729 27.2642C139.991 27.9673 140.126 28.7344 140.134 29.5653C140.126 31 139.768 32.2145 139.058 33.2088C138.347 34.2031 137.332 34.9595 136.011 35.478C134.697 35.9964 133.116 36.2557 131.27 36.2557C129.374 36.2557 127.719 35.9751 126.305 35.4141C124.899 34.853 123.805 33.9901 123.024 32.8253C122.25 31.6534 121.859 30.1548 121.852 28.3295H127.477C127.513 28.9972 127.68 29.5582 127.978 30.0128C128.276 30.4673 128.695 30.8118 129.235 31.0462C129.782 31.2805 130.432 31.3977 131.185 31.3977C131.817 31.3977 132.346 31.3196 132.772 31.1634C133.198 31.0071 133.521 30.7905 133.741 30.5135C133.962 30.2365 134.075 29.9205 134.082 29.5653C134.075 29.2315 133.965 28.9403 133.752 28.6918C133.546 28.4361 133.205 28.2088 132.729 28.0099C132.254 27.804 131.611 27.6122 130.801 27.4347L128.628 26.9659C126.696 26.5469 125.173 25.8473 124.058 24.8672C122.95 23.88 122.399 22.5341 122.406 20.8295C122.399 19.4446 122.768 18.2337 123.514 17.1967C124.267 16.1527 125.308 15.3395 126.636 14.7571C127.971 14.1747 129.501 13.8835 131.227 13.8835C132.989 13.8835 134.512 14.1783 135.798 14.7678C137.083 15.3572 138.074 16.1882 138.77 17.2607C139.473 18.326 139.828 19.5724 139.835 21H134.168ZM142.387 36V14.1818H158.111V18.9545H148.31V22.7045H157.301V27.4773H148.31V31.2273H158.069V36H142.387ZM175.218 21.3835C175.126 21.0071 174.98 20.6768 174.781 20.3928C174.582 20.1016 174.334 19.8565 174.035 19.6577C173.744 19.4517 173.403 19.299 173.013 19.1996C172.629 19.093 172.206 19.0398 171.745 19.0398C170.751 19.0398 169.902 19.2777 169.199 19.7536C168.503 20.2294 167.97 20.9148 167.601 21.8097C167.238 22.7045 167.057 23.7841 167.057 25.0483C167.057 26.3267 167.231 27.4205 167.579 28.3295C167.927 29.2386 168.446 29.9347 169.135 30.4176C169.824 30.9006 170.68 31.142 171.702 31.142C172.604 31.142 173.354 31.0107 173.95 30.7479C174.554 30.4851 175.005 30.1122 175.303 29.6293C175.601 29.1463 175.751 28.5781 175.751 27.9247L176.773 28.0312H171.787V23.8125H181.461V26.8381C181.461 28.8267 181.038 30.5277 180.193 31.9411C179.355 33.3473 178.197 34.4268 176.72 35.1797C175.25 35.9254 173.563 36.2983 171.66 36.2983C169.536 36.2983 167.672 35.8473 166.067 34.9453C164.461 34.0433 163.208 32.7578 162.306 31.0888C161.411 29.4197 160.964 27.4347 160.964 25.1335C160.964 23.3295 161.237 21.7315 161.784 20.3395C162.338 18.9474 163.105 17.772 164.085 16.8132C165.065 15.8473 166.198 15.1193 167.483 14.6293C168.769 14.1321 170.147 13.8835 171.617 13.8835C172.91 13.8835 174.11 14.0682 175.218 14.4375C176.333 14.7997 177.317 15.3182 178.169 15.9929C179.028 16.6605 179.721 17.4524 180.246 18.3686C180.772 19.2848 181.091 20.2898 181.205 21.3835H175.218ZM197.135 14.1818H203.058V28.1591C203.058 29.821 202.66 31.2592 201.865 32.4737C201.076 33.6811 199.975 34.6151 198.562 35.2756C197.149 35.929 195.508 36.2557 193.64 36.2557C191.758 36.2557 190.11 35.929 188.697 35.2756C187.284 34.6151 186.183 33.6811 185.395 32.4737C184.613 31.2592 184.223 29.821 184.223 28.1591V14.1818H190.146V27.6477C190.146 28.3224 190.295 28.9261 190.593 29.4588C190.892 29.9844 191.304 30.3963 191.829 30.6946C192.362 30.9929 192.966 31.142 193.64 31.142C194.322 31.142 194.926 30.9929 195.451 30.6946C195.977 30.3963 196.389 29.9844 196.687 29.4588C196.985 28.9261 197.135 28.3224 197.135 27.6477V14.1818ZM205.873 36V14.1818H215.291C216.91 14.1818 218.327 14.4766 219.541 15.0661C220.756 15.6555 221.7 16.5043 222.375 17.6122C223.05 18.7202 223.387 20.0483 223.387 21.5966C223.387 23.1591 223.039 24.4766 222.343 25.549C221.654 26.6214 220.685 27.4311 219.435 27.978C218.192 28.5249 216.74 28.7983 215.078 28.7983H209.453V24.196H213.884C214.58 24.196 215.173 24.1108 215.664 23.9403C216.161 23.7628 216.541 23.4822 216.803 23.0987C217.073 22.7152 217.208 22.2145 217.208 21.5966C217.208 20.9716 217.073 20.4638 216.803 20.0732C216.541 19.6754 216.161 19.3842 215.664 19.1996C215.173 19.0078 214.58 18.9119 213.884 18.9119H211.796V36H205.873ZM218.657 25.9858L224.112 36H217.677L212.35 25.9858H218.657ZM247.048 25.0909C247.048 27.5199 246.576 29.5689 245.632 31.2379C244.687 32.8999 243.412 34.1605 241.807 35.0199C240.202 35.8722 238.412 36.2983 236.438 36.2983C234.449 36.2983 232.652 35.8686 231.047 35.0092C229.449 34.1428 228.178 32.8786 227.233 31.2166C226.296 29.5476 225.827 27.5057 225.827 25.0909C225.827 22.6619 226.296 20.6165 227.233 18.9545C228.178 17.2855 229.449 16.0249 231.047 15.1726C232.652 14.3132 234.449 13.8835 236.438 13.8835C238.412 13.8835 240.202 14.3132 241.807 15.1726C243.412 16.0249 244.687 17.2855 245.632 18.9545C246.576 20.6165 247.048 22.6619 247.048 25.0909ZM240.955 25.0909C240.955 23.7841 240.781 22.6832 240.433 21.7884C240.092 20.8864 239.584 20.2045 238.909 19.7429C238.242 19.2741 237.418 19.0398 236.438 19.0398C235.458 19.0398 234.63 19.2741 233.955 19.7429C233.288 20.2045 232.78 20.8864 232.432 21.7884C232.091 22.6832 231.921 23.7841 231.921 25.0909C231.921 26.3977 232.091 27.5021 232.432 28.4041C232.78 29.299 233.288 29.9808 233.955 30.4496C234.63 30.9112 235.458 31.142 236.438 31.142C237.418 31.142 238.242 30.9112 238.909 30.4496C239.584 29.9808 240.092 29.299 240.433 28.4041C240.781 27.5021 240.955 26.3977 240.955 25.0909Z" fill="#1F346C"/>
</svg>
